PathFileType	4	(X/Y/Z)	s11c0301.trc
DataRate	CameraRate	NumFrames	NumMarkers	Units	OrigDataRate	OrigDataStartFrame	OrigNumFrames
200	200	6	48	mm	200	0	2000
Frame#	Time	racr			lacr			c7			jug			rlel			rdr			llel			ldr			s2			lic			ric			lasi			rasi			rpsi			lpsi			rgt			lgt			rth1			rth2			rth3			rth4			rlfc			rmfc			rsh1			rsh2			rsh3			rsh4			rlmal			rcal			rtoe			rmt5			lth1			lth2			lth4			lth3			llfc			lmfc			llmal			lcal			lmt5			lsh1			lsh2			lsh3			lsh4			ltoe			SBIKE			LBIKE			RBIKE			
		X1	Y1	Z1	X2	Y2	Z2	X3	Y3	Z3	X4	Y4	Z4	X5	Y5	Z5	X6	Y6	Z6	X7	Y7	Z7	X8	Y8	Z8	X9	Y9	Z9	X10	Y10	Z10	X11	Y11	Z11	X12	Y12	Z12	X13	Y13	Z13	X14	Y14	Z14	X15	Y15	Z15	X16	Y16	Z16	X17	Y17	Z17	X18	Y18	Z18	X19	Y19	Z19	X20	Y20	Z20	X21	Y21	Z21	X22	Y22	Z22	X23	Y23	Z23	X24	Y24	Z24	X25	Y25	Z25	X26	Y26	Z26	X27	Y27	Z27	X28	Y28	Z28	X29	Y29	Z29	X30	Y30	Z30	X31	Y31	Z31	X32	Y32	Z32	X33	Y33	Z33	X34	Y34	Z34	X35	Y35	Z35	X36	Y36	Z36	X37	Y37	Z37	X38	Y38	Z38	X39	Y39	Z39	X40	Y40	Z40	X41	Y41	Z41	X42	Y42	Z42	X43	Y43	Z43	X44	Y44	Z44	X45	Y45	Z45	X46	Y46	Z46	X47	Y47	Z47	X48	Y48	Z48	
0	0.0000	455.396865	1389.102976	-114.090702	443.568679	1408.147551	-432.595754	373.453099	1512.671076	-267.594506	414.563766	1338.773452	-278.418089	584.367374	1154.168024	-53.546761	786.719473	930.584743	-89.401251	546.473782	1132.920816	-503.304336	787.976558	920.634780	-453.957909	-149.263634	1211.849479	-236.539364	57.011540	1235.793025	-455.892653	87.317366	1207.965006	-57.276865	81.860222	1163.009135	-416.690393	114.142277	1142.630928	-91.335927	-96.125939	1279.267857	-186.026469	-110.659531	1277.881777	-280.201150	23.099393	1051.231915	-38.463291	-19.311360	1114.612343	-466.343705	119.286798	939.648716	-38.631603	193.001189	891.445766	-52.922612	231.266981	815.149422	-72.472776	218.526340	916.945969	-64.278424	294.331884	730.799075	-93.782455	283.101659	714.724671	-219.986068	201.534501	601.025923	-77.735947	168.211604	520.697549	-96.400680	101.482424	465.111332	-95.021337	188.622782	510.413669	-129.046580	9.357780	366.266272	-104.510452	-57.901214	366.601232	-150.978110	202.956132	249.374326	-147.366681	129.329501	245.197868	-77.521360	117.066652	1048.489800	-482.008790	201.213687	1033.137056	-480.900224	218.197362	1064.490237	-469.979837	269.051770	974.127678	-483.855309	392.434652	896.503125	-459.347880	409.010150	892.889386	-331.489686	258.439587	486.137680	-425.147349	203.576290	437.843411	-387.359737	407.305152	401.125085	-457.864382	354.028960	775.983612	-474.612988	354.025863	691.937500	-458.103587	310.788496	614.591308	-450.518803	384.744457	686.822059	-435.487648	501.431896	431.634888	-390.560783	-216.667256	955.346155	-256.857329	-18.120838	80.956003	-460.700333	-17.903671	80.833643	-62.213071	
1	0.0050	455.361335	1389.156513	-114.038347	443.555012	1408.095410	-432.433994	373.573891	1512.799084	-267.473589	414.683345	1338.842792	-278.350222	584.483532	1154.139297	-53.458018	786.819281	930.540130	-89.483370	546.353885	1133.014379	-503.455151	788.123928	920.448167	-453.766144	-149.397099	1211.943261	-236.464334	56.858116	1235.715083	-455.809456	87.100086	1208.153346	-57.247673	82.084203	1162.794315	-417.182919	113.874847	1142.844370	-91.351996	-96.161419	1279.285466	-185.818391	-110.692541	1277.887098	-280.181558	23.372204	1051.587833	-38.506928	-19.352485	1114.166757	-466.085646	120.421888	940.843670	-38.762638	194.467478	893.189575	-52.730144	233.248042	816.996143	-72.361623	219.871126	918.733027	-64.175843	296.613953	732.914522	-93.591381	286.139454	716.639477	-219.533994	202.870473	603.779922	-77.627448	169.326817	524.216567	-95.808635	101.737306	468.808120	-95.018391	189.285284	513.216316	-128.862621	9.068538	370.565676	-104.661391	-58.222274	371.154823	-151.060877	201.696268	252.020836	-147.430369	127.952529	248.432736	-77.474441	116.750651	1047.164447	-481.719182	200.753892	1031.278188	-480.462708	217.947032	1062.543228	-469.610263	268.235475	971.808465	-483.173073	391.364110	893.597643	-458.440060	408.201838	890.312393	-330.266326	259.920844	482.274606	-425.223984	205.034310	433.922256	-387.354675	408.810652	397.603893	-457.867777	353.679374	772.747112	-474.027789	354.045909	687.947553	-457.659444	311.565239	610.991079	-450.171997	384.645372	684.014932	-436.984243	502.887974	428.215905	-390.454732	-216.645816	955.341529	-256.820728	-18.117682	80.953604	-460.690896	-17.961295	80.850193	-62.158654	
2	0.0100	455.351323	1389.217951	-113.928531	443.542942	1407.935627	-432.199118	373.695070	1512.929064	-267.347061	414.778722	1338.925581	-278.276813	584.673268	1154.163928	-53.465493	786.918756	930.505150	-89.635044	546.416877	1133.168954	-503.512622	788.309797	920.248473	-453.546156	-149.476137	1212.027149	-236.390789	56.724263	1235.578714	-455.714124	86.934826	1208.352231	-57.205580	81.985637	1162.205781	-416.859019	113.635729	1143.033510	-91.337420	-96.288744	1279.392156	-185.818300	-110.752583	1277.897710	-280.117150	23.698944	1051.999252	-38.595280	-19.385462	1113.596453	-465.817176	121.646501	942.203351	-39.061901	195.969036	894.924555	-52.615135	235.200112	818.997204	-72.305342	221.301041	920.610763	-64.079008	298.930973	735.132373	-93.270800	288.705701	718.977239	-219.602383	204.234058	606.537772	-77.550781	169.936080	527.136715	-95.563953	102.026471	472.345807	-94.944244	190.127638	516.066670	-128.626218	8.910500	374.617259	-104.725526	-58.467816	375.878101	-151.149157	200.460782	254.538688	-147.355747	126.745467	251.644475	-77.492793	116.413925	1045.725607	-481.418946	200.320266	1029.275466	-480.040234	217.699435	1060.465354	-469.309077	267.365539	969.307052	-482.477120	390.182240	890.494942	-457.502836	406.091538	886.950855	-330.107294	261.167577	478.251612	-425.344195	206.304429	429.824538	-387.396477	410.185359	394.082218	-457.795068	353.232765	769.316356	-473.404142	354.358458	685.358200	-457.076493	312.196458	607.322202	-449.870645	385.092593	680.535929	-434.422235	504.200019	424.942542	-390.467586	-216.621986	955.338656	-256.771863	-18.110054	80.961070	-460.681222	-17.897437	80.833102	-62.225432	
3	0.0150	455.361175	1389.262806	-113.747345	443.883825	1408.066291	-431.886468	373.805138	1513.066197	-267.234298	414.841219	1339.068144	-278.181269	584.903207	1154.210586	-53.557866	787.010586	930.457730	-89.750251	546.645890	1133.350630	-503.469446	788.523122	920.051292	-453.290333	-149.566691	1212.113795	-236.297500	56.582385	1235.346931	-455.606562	86.823062	1208.569780	-57.166928	82.287511	1161.763338	-417.374544	113.415251	1143.219566	-91.364952	-96.821352	1279.621821	-185.904466	-110.740482	1277.906503	-280.082805	24.063186	1052.550042	-38.692713	-19.443211	1113.172455	-465.597234	123.436459	944.158691	-38.109016	197.618773	897.035208	-52.466456	237.136300	821.093342	-72.303250	222.701566	922.627371	-63.977348	301.033811	737.378044	-92.970308	291.443203	721.152697	-219.490814	205.682767	609.277705	-77.366767	170.718613	530.131015	-95.337618	102.372297	475.877171	-94.838318	190.848529	518.822759	-128.414139	8.930288	378.693617	-104.674761	-58.651300	380.521993	-151.198514	199.255597	257.295609	-147.207622	125.652535	254.791260	-77.473445	115.992887	1044.092617	-481.101379	199.837100	1027.146494	-479.592322	217.595530	1058.224672	-468.898928	266.435442	966.691307	-481.751207	388.965872	887.223211	-456.571922	404.604967	883.798072	-329.229114	262.215652	474.162117	-425.398974	207.015079	425.704905	-387.688670	411.382780	390.598299	-457.812113	352.652795	765.669129	-472.724932	354.079391	680.872520	-456.550617	312.549221	603.407345	-449.587904	384.382008	677.408372	-436.350138	505.291904	421.649513	-390.417339	-216.596508	955.347150	-256.702552	-18.115410	80.958404	-460.698888	-17.932939	80.844657	-62.157843	
4	0.0200	455.394701	1389.069550	-113.386481	443.910697	1407.459220	-431.691007	373.949596	1513.198300	-267.194837	414.902566	1339.042872	-278.048957	585.130401	1154.211533	-53.632381	787.423903	930.626976	-90.583134	547.029877	1133.540544	-503.077746	789.043717	920.282751	-453.386287	-149.542022	1211.937856	-236.207380	56.512117	1235.101208	-455.572003	86.821793	1208.640695	-56.936278	82.502235	1161.272871	-417.704215	113.216107	1143.279438	-91.183087	-96.977972	1279.615130	-185.964651	-110.655872	1277.769176	-280.082225	24.583530	1052.803135	-38.947822	-19.502127	1112.260206	-465.335896	124.726037	945.414748	-38.770169	199.200609	898.715073	-52.168643	239.089782	822.827605	-72.050982	224.187873	924.561655	-64.038759	303.346501	739.467116	-92.348754	294.044696	723.366145	-219.205704	207.174156	611.784073	-77.178003	171.797812	532.623119	-94.462030	102.881095	479.155974	-94.607012	192.125944	521.655418	-128.076719	8.865875	382.604521	-104.421224	-58.712830	385.077757	-150.996824	198.287685	259.734745	-147.053014	124.629206	257.824980	-77.357522	115.635352	1042.218757	-480.823909	199.324254	1024.576538	-478.630183	217.268345	1055.611849	-468.341356	265.503077	963.639662	-480.356513	387.619595	883.587793	-455.169495	403.135917	880.297296	-328.292780	263.067170	469.983607	-425.352499	208.281836	421.380446	-387.388320	412.551892	387.082394	-457.738794	351.899163	761.810089	-472.068127	353.863371	676.975269	-455.927878	312.528196	599.282108	-449.286577	383.744668	673.731212	-436.326657	506.319571	418.529357	-390.453077	-216.975982	955.614877	-257.693505	-18.082053	81.106414	-460.453383	-17.832252	80.697495	-61.997310	
5	0.0250	455.405985	1389.130678	-112.995193	443.973533	1407.160802	-431.412838	374.061528	1513.355650	-267.094596	414.985849	1339.145587	-277.934569	585.417863	1154.338304	-53.948271	787.321277	930.353052	-90.516151	547.602691	1133.800057	-502.946989	788.332399	919.098917	-451.871710	-149.537656	1212.273888	-236.181550	56.511965	1234.891920	-455.588242	86.732660	1209.059669	-57.127876	82.870814	1160.825277	-418.126409	112.986852	1143.519672	-91.183061	-97.010774	1280.045515	-185.907760	-110.588635	1277.897225	-280.083177	25.250970	1053.596718	-39.046380	-19.459747	1112.044984	-464.940011	126.180780	947.177259	-39.153205	200.643251	900.848101	-52.991631	241.043359	825.086932	-72.286982	225.672460	926.583065	-64.125622	305.400451	741.646785	-92.304112	296.381035	725.757494	-219.757138	208.641888	614.593745	-77.033967	172.689032	535.912856	-94.943776	103.523878	482.704826	-94.583730	192.964005	524.475906	-127.812422	8.993269	386.730429	-104.331777	-58.758783	389.624222	-151.033551	197.350636	262.346215	-147.055826	123.746248	260.984553	-77.308575	115.344339	1040.721529	-480.368032	198.940248	1022.350549	-478.274231	217.071977	1053.231869	-468.168201	264.627291	960.865858	-479.774224	386.181474	880.128511	-454.468756	401.484386	876.770167	-327.668692	263.599910	465.889504	-425.224103	209.410568	417.322643	-387.447098	413.469355	383.734037	-457.721725	351.039213	757.852211	-471.450388	353.411280	673.073805	-455.288958	312.755054	595.080487	-448.643892	383.324799	669.737078	-435.875701	507.178689	415.440576	-390.388039	-217.218621	955.798974	-258.288260	-17.963739	80.947729	-460.765743	-17.877218	80.804069	-62.114155	
